<svg xmlns="http://www.w3.org/2000/svg" viewBox="0 0 64 64">
  <defs>
    <radialGradient id="bg" cx="48%" cy="32%" r="78%">
      <stop offset="0" stop-color="#3b2a18"/>
      <stop offset="1" stop-color="#100b06"/>
    </radialGradient>
    <linearGradient id="metal" x1="0" y1="0" x2="1" y2="1">
      <stop offset="0" stop-color="#f7cc78"/>
      <stop offset="0.55" stop-color="#f0a23c"/>
      <stop offset="1" stop-color="#b65c27"/>
    </linearGradient>
  </defs>
  <rect width="64" height="64" rx="14" fill="url(#bg)"/>
  <rect x="1.5" y="1.5" width="61" height="61" rx="12.5" fill="none" stroke="#e9bb6e" stroke-opacity=".34" stroke-width="3"/>
  <!-- 工业钻机：电机仓、主轴与锥形钻头 -->
  <path d="M12 15h23l8 8-8 8H12z" fill="#25190e" stroke="#e8b968" stroke-width="3" stroke-linejoin="round"/>
  <path d="M18 11v24M25 15v16" fill="none" stroke="#8f99a4" stroke-width="3" stroke-linecap="round"/>
  <path d="M35 23h8l7 7-7 7h-8" fill="#1a120b" stroke="#e8b968" stroke-width="3" stroke-linejoin="round"/>
  <path d="m50 30 7 7-7 7-7-7z" fill="url(#metal)" stroke="#fff0c7" stroke-width="2.4" stroke-linejoin="round"/>
  <path d="m57 37 4 4-8 2z" fill="#f0a23c" stroke="#fff0c7" stroke-width="2" stroke-linejoin="round"/>
  <path d="M16 39h15M19 39l-3 11m12-11 3 11" fill="none" stroke="#8f99a4" stroke-width="3" stroke-linecap="round"/>
  <circle cx="18" cy="23" r="3" fill="#f0a23c"/>
</svg>
